<svg width="50" height="32" viewBox="0 0 50 32" fill="none" xmlns="http://www.w3.org/2000/svg">
<rect width="50" height="32" rx="4" fill="white"/>
<g clip-path="url(#clip0_14_5884)">
<path d="M26.8219 21.1052C26.7784 21.9275 26.4162 22.4907 25.7218 22.8316C25.52 22.9306 25.3318 22.8523 25.2399 22.6431C25.1692 22.4819 25.2502 22.2983 25.4403 22.2126C25.932 21.9907 26.1479 21.5359 26.1387 21.1074C26.1274 20.5864 25.8189 20.1891 25.3337 20.0183C24.8665 19.8538 24.3785 20.0134 24.0338 20.4436C23.769 20.774 23.7462 21.3444 23.9786 21.7271C24.1074 21.9393 24.2779 22.0994 24.5017 22.206C24.7125 22.3066 24.7869 22.4921 24.7017 22.6756C24.6146 22.8631 24.4083 22.9231 24.2012 22.8173C23.6449 22.5333 23.2805 22.0921 23.169 21.466C22.9928 20.4764 23.6038 19.5885 24.4842 19.3422C25.5247 19.0511 26.5243 19.716 26.7568 20.6787C26.7936 20.8308 26.8048 20.989 26.8219 21.1052Z" fill="#00AA11"/>
<path d="M29.4791 20.1004C29.4846 20.0217 29.489 19.9589 29.4938 19.8873C29.6739 19.8873 29.8472 19.8873 30.0312 19.8873C30.0353 19.9272 30.0424 19.965 30.0424 20.0027C30.043 20.6452 30.0463 21.2876 30.0413 21.9301C30.0382 22.3266 29.887 22.6524 29.537 22.8525C29.0983 23.1033 28.4143 23.0241 28.0223 22.691C27.9854 22.6596 27.9503 22.6262 27.9071 22.5872C28.0237 22.4712 28.1379 22.3574 28.2634 22.2324C28.4592 22.3913 28.6785 22.4712 28.9347 22.4634C29.3299 22.4515 29.5245 22.2324 29.473 21.8065C29.1423 22.0683 28.7773 22.0782 28.4069 21.9529C28.1859 21.8782 28.0111 21.7284 27.8875 21.5199C27.6263 21.0792 27.6935 20.52 28.0552 20.1787C28.4429 19.8129 29.0292 19.7753 29.4791 20.1004ZM29.4567 20.9541C29.4567 20.582 29.2568 20.379 28.8934 20.3823C28.5517 20.3854 28.3213 20.612 28.3088 20.9276C28.2924 21.3387 28.5567 21.5239 28.9063 21.519C29.2654 21.5142 29.4567 21.3218 29.4567 20.9541Z" fill="black"/>
<path d="M38.5903 19.8807C38.2589 20.1969 37.957 20.485 37.6508 20.7771C37.9623 21.1962 38.2669 21.606 38.5923 22.044C38.3698 22.044 38.1857 22.0496 38.0024 22.0399C37.9596 22.0377 37.909 21.9915 37.8798 21.9521C37.7106 21.7232 37.5469 21.4902 37.381 21.2588C37.3531 21.2198 37.3235 21.1822 37.2736 21.1159C37.1541 21.2541 37.002 21.363 36.9503 21.5086C36.8959 21.6609 36.9381 21.8483 36.9381 22.0443C36.8388 22.0443 36.7528 22.0443 36.6669 22.0443C36.5847 22.0443 36.5027 22.0443 36.4072 22.0443C36.4035 21.98 36.3978 21.9276 36.3978 21.8754C36.3972 21.0649 36.4017 20.2544 36.3936 19.4438C36.3921 19.2882 36.4393 19.2428 36.5851 19.2587C36.6951 19.2708 36.8073 19.2612 36.9359 19.2612C36.9359 19.7535 36.9359 20.2286 36.9359 20.7439C37.1044 20.5903 37.2443 20.4649 37.3819 20.3367C37.5217 20.2065 37.6579 20.0724 37.7985 19.9431C37.829 19.9151 37.8716 19.8844 37.9092 19.8834C38.1218 19.8777 38.3346 19.8807 38.5903 19.8807Z" fill="black"/>
<path d="M34.445 21.1464C34.4783 21.3752 34.6946 21.5498 34.9438 21.57C35.1542 21.5871 35.3515 21.556 35.5236 21.4176C35.551 21.3954 35.6103 21.3779 35.634 21.3927C35.7491 21.464 35.857 21.5471 35.978 21.6338C35.6047 22.0098 35.1801 22.1134 34.6915 21.9913C34.2945 21.892 34.0063 21.6666 33.913 21.2543C33.7102 20.357 34.3932 19.7641 35.1826 19.8995C35.6406 19.9779 35.9259 20.2496 36.0333 20.7026C36.0653 20.838 36.0561 20.9836 36.0672 21.1464C35.7806 21.1464 35.5134 21.1464 35.2462 21.1464C34.983 21.1464 34.7197 21.1464 34.445 21.1464ZM35.5046 20.7328C35.4674 20.4638 35.2562 20.3354 34.9001 20.3522C34.645 20.3644 34.4722 20.5111 34.4595 20.7328C34.8053 20.7328 35.1507 20.7328 35.5046 20.7328Z" fill="black"/>
<path d="M31.4986 19.8502C32.1299 19.8756 32.5987 20.2733 32.6459 20.8924C32.678 21.3147 32.4944 21.6538 32.1271 21.8815C31.7066 22.1423 31.0398 22.0726 30.6837 21.7244C30.15 21.2024 30.3131 20.2815 30.997 19.9923C31.156 19.925 31.331 19.8966 31.4986 19.8502ZM32.0725 20.9635C32.0715 20.6123 31.8499 20.3797 31.5146 20.3823C31.1384 20.3852 30.942 20.6305 30.9295 20.965C30.9173 21.2862 31.1897 21.5441 31.5086 21.5418C31.8491 21.5392 32.0737 21.309 32.0725 20.9635Z" fill="black"/>
<path d="M32.977 19.8823C33.1705 19.8823 33.3408 19.8823 33.5342 19.8823C33.5342 19.9303 33.5342 19.9771 33.5342 20.024C33.5342 20.8053 33.5346 21.5867 33.5338 22.3682C33.5336 22.7625 33.3063 22.9918 32.9167 22.9931C32.7664 22.9937 32.6161 22.9932 32.4497 22.9932C32.4497 22.9005 32.4497 22.8229 32.4497 22.7452C32.4497 22.667 32.4497 22.5885 32.4497 22.4826C32.5504 22.4826 32.6414 22.4863 32.732 22.4819C32.9381 22.4717 32.977 22.4292 32.977 22.2237C32.9772 21.5015 32.977 20.7796 32.977 20.0574C32.977 20.004 32.977 19.9506 32.977 19.8823Z" fill="black"/>
<path d="M24.297 21.1137C24.2549 20.7975 24.6509 20.4166 24.9875 20.4389C25.3597 20.4637 25.668 20.7577 25.6656 21.1337C25.6633 21.5085 25.3417 21.8397 24.9709 21.8297C24.6003 21.8198 24.2751 21.5227 24.297 21.1137Z" fill="#00AA11"/>
<path d="M11.4077 20.1439H11.983C12.296 20.1439 12.4813 20.3228 12.4813 20.6094C12.4813 20.9004 12.2981 21.0706 11.983 21.0706H11.5825V21.6526H11.4077V20.1439ZM11.9722 20.9026C12.2001 20.9026 12.3045 20.8099 12.3045 20.6094C12.3045 20.409 12.1959 20.312 11.9722 20.312H11.5825V20.9026H11.9722Z" fill="black"/>
<path d="M13.0993 20.478C13.4188 20.478 13.6318 20.7216 13.6318 21.0815C13.6318 21.4414 13.4188 21.6849 13.0993 21.6849C12.7819 21.6849 12.5688 21.4414 12.5688 21.0815C12.5688 20.7216 12.7819 20.478 13.0993 20.478ZM13.0993 20.6354C12.8756 20.6354 12.735 20.8078 12.735 21.0815C12.735 21.3552 12.8756 21.5277 13.0993 21.5277C13.3229 21.5277 13.4657 21.3552 13.4657 21.0815C13.4657 20.8078 13.3229 20.6354 13.0993 20.6354Z" fill="black"/>
<path d="M13.7385 20.5103H13.9025L14.107 21.3983H14.1113L14.4138 20.5103H14.565L14.8675 21.3983H14.8717L15.0763 20.5103H15.2403L14.9699 21.6526H14.8121L14.4926 20.7193H14.4884L14.1667 21.6526H14.009L13.7385 20.5103Z" fill="black"/>
<path d="M15.8711 20.478C16.1736 20.478 16.3759 20.7086 16.3759 21.0449V21.1311H15.5175C15.5217 21.3509 15.6602 21.532 15.8668 21.532C16.0266 21.532 16.116 21.4738 16.2119 21.3034L16.3504 21.3876C16.2545 21.5837 16.0905 21.6849 15.8711 21.6849C15.558 21.6849 15.3491 21.4414 15.3491 21.0815C15.3491 20.7216 15.5644 20.478 15.8711 20.478ZM16.2076 20.9952C16.2055 20.8897 16.1715 20.8035 16.1096 20.7345C16.0479 20.6655 15.9691 20.6311 15.8711 20.6311C15.6794 20.6311 15.5261 20.8035 15.5217 20.9952H16.2076Z" fill="black"/>
<path d="M16.6125 20.5103H16.7701V20.6052H16.7744C16.817 20.5341 16.9 20.491 17.0087 20.491C17.0428 20.491 17.0812 20.4974 17.1217 20.5082L17.0853 20.6827C17.0449 20.6698 17.0065 20.6634 16.9746 20.6634C16.8403 20.6634 16.7786 20.754 16.7786 20.9673V21.6526H16.6125V20.5103Z" fill="black"/>
<path d="M17.7203 20.478C18.0229 20.478 18.2252 20.7086 18.2252 21.0449V21.1311H17.3667C17.3709 21.3509 17.5094 21.532 17.7161 21.532C17.8758 21.532 17.9654 21.4738 18.0611 21.3034L18.1996 21.3876C18.1038 21.5837 17.9398 21.6849 17.7203 21.6849C17.4072 21.6849 17.1985 21.4414 17.1985 21.0815C17.1985 20.7216 17.4136 20.478 17.7203 20.478ZM18.057 20.9952C18.0548 20.8897 18.0207 20.8035 17.959 20.7345C17.8971 20.6655 17.8183 20.6311 17.7203 20.6311C17.5286 20.6311 17.3753 20.8035 17.3709 20.9952H18.057Z" fill="black"/>
<path d="M18.9262 20.4779C19.0625 20.4779 19.1839 20.5361 19.2586 20.631H19.2627V20.0792H19.429V21.6526H19.2692V21.5382H19.2649C19.1903 21.631 19.0646 21.6848 18.9262 21.6848C18.6322 21.6848 18.4192 21.437 18.4192 21.0814C18.4192 20.7258 18.6322 20.4779 18.9262 20.4779ZM19.2627 20.9693C19.2627 20.784 19.1137 20.6353 18.9262 20.6353C18.7239 20.6353 18.5854 20.812 18.5854 21.0814C18.5854 21.3508 18.7239 21.5276 18.9369 21.5276C19.1159 21.5276 19.2627 21.3767 19.2627 21.1914V20.9693Z" fill="black"/>
<path d="M20.4452 21.5382V21.6526H20.2854V20.0792H20.4516V20.631H20.4558C20.5305 20.5361 20.6518 20.4779 20.7881 20.4779C21.0822 20.4779 21.2951 20.7258 21.2951 21.0814C21.2951 21.437 21.0822 21.6848 20.7881 21.6848C20.6496 21.6848 20.524 21.631 20.4494 21.5382H20.4452ZM20.7881 20.6353C20.6007 20.6353 20.4516 20.784 20.4516 20.9693V21.1914C20.4516 21.3767 20.5985 21.5276 20.7775 21.5276C20.9906 21.5276 21.1291 21.3508 21.1291 21.0814C21.1291 20.812 20.9906 20.6353 20.7881 20.6353Z" fill="black"/>
<path d="M21.7854 21.5556L21.3508 20.5103H21.5276L21.8706 21.3616H21.875L22.22 20.5103H22.3968L21.7194 22.1375H21.5468L21.7854 21.5556Z" fill="black"/>
<path d="M8.58406 9C11.1146 9 13.1661 11.0029 13.1661 13.4736C13.1661 15.9444 11.1146 17.9473 8.58406 17.9473C6.05361 17.9473 4.0022 15.9444 4.0022 13.4736C4.0022 11.0029 6.05361 9 8.58406 9Z" fill="#00AED6"/>
<path fill-rule="evenodd" clip-rule="evenodd" d="M11.2564 13.3356C11.2216 12.7664 10.7251 12.3298 10.1415 12.3552H7.24736C7.14179 12.3552 7.05634 12.2717 7.05634 12.1688C7.05634 12.0659 7.14179 11.9824 7.24736 11.9824H10.1797C10.1625 11.5965 9.89273 11.2654 9.51145 11.1623C8.65665 11.0131 7.78148 11.0131 6.92656 11.1623C6.44073 11.2788 6.07727 11.6735 6.01013 12.1577C5.87651 13.0351 5.87651 13.9271 6.01013 14.8045C6.1125 15.3168 6.52939 15.7133 7.05634 15.8C8.11625 15.9304 9.1886 15.9304 10.2484 15.8C10.7206 15.7065 11.0779 15.3276 11.1343 14.8605C11.2313 14.358 11.2722 13.8467 11.2564 13.3356ZM10.3019 13.962V14.1261C10.3019 14.229 10.2165 14.3125 10.111 14.3125C10.0056 14.3125 9.92015 14.229 9.92015 14.1261V13.962C9.85839 13.9095 9.82355 13.8331 9.82457 13.7533C9.82457 13.5988 9.95282 13.4736 10.111 13.4736C10.2691 13.4736 10.3974 13.5988 10.3974 13.7533C10.3965 13.8327 10.3619 13.9083 10.3019 13.962Z" fill="white"/>
<path d="M26.2161 12.9703C26.2224 12.1859 25.5761 11.545 24.7727 11.5388C23.9694 11.5327 23.313 12.1636 23.3067 12.9481C23.3004 13.7325 23.9465 14.3734 24.7499 14.3794C24.7576 14.3796 24.7652 14.3796 24.7727 14.3794C25.535 14.4194 26.1861 13.8484 26.227 13.1041C26.2294 13.0595 26.2295 13.0149 26.2275 12.9703H26.2161ZM21.8938 12.9703C21.8938 11.4791 23.1004 10.342 24.7727 10.342C26.4452 10.342 27.6517 11.4866 27.6517 12.9703C27.6517 14.4541 26.4566 15.6023 24.7727 15.6023C23.0889 15.6023 21.8938 14.4579 21.8938 12.9703Z" fill="black"/>
<path d="M19.6029 13.2425C19.6029 13.8577 18.9616 14.361 18.1483 14.361C17.4014 14.4346 16.7346 13.9032 16.6592 13.1739C16.6515 13.1002 16.6502 13.0258 16.6553 12.9517C16.6553 12.139 17.2662 11.5798 18.2056 11.5798C18.9691 11.5798 19.6029 12.0905 19.6029 12.6684V13.2425ZM19.6603 10.3383V10.9275C19.1955 10.5154 18.58 10.3043 17.9536 10.3421C16.4721 10.3555 15.2823 11.5389 15.296 12.9853C15.3097 14.4317 16.5217 15.5934 18.0031 15.58C18.6131 15.6066 19.2068 15.3837 19.6411 14.9649V15.4682C19.6411 16.1504 19.0379 16.6499 18.2437 16.6499C17.6371 16.6927 17.0397 16.4874 16.5942 16.0832L15.6664 16.9557C16.3621 17.6223 17.3077 17.9809 18.2819 17.9473C19.9085 17.9473 21.0234 16.881 21.0234 15.4607V10.3383H19.6603Z" fill="black"/>
<path d="M28.4917 10.4913H29.8586V10.9311H29.8777C30.3258 10.5323 30.9176 10.3232 31.5235 10.3496C33.0112 10.4043 34.1718 11.6261 34.1158 13.0788C34.0626 14.4546 32.9325 15.558 31.5235 15.6099C30.9446 15.623 30.3798 15.4368 29.9274 15.0841V17.5745H28.5032L28.4917 10.4913ZM31.302 11.5799C30.5382 11.5799 29.9159 12.0981 29.9159 12.6609V13.291C29.9159 13.8913 30.5307 14.3871 31.3096 14.3871C32.1036 14.427 32.7803 13.831 32.8213 13.0559C32.8622 12.2806 32.2518 11.6198 31.4577 11.5799C31.4084 11.5774 31.359 11.5774 31.3096 11.5799H31.302Z" fill="black"/>
<path d="M36.8499 12.4895C37.7855 12.3663 38.0641 12.2359 38.0641 11.9824C38.0641 11.6543 37.7091 11.4568 37.1592 11.4568C36.5665 11.4094 36.0269 11.7907 35.8878 12.3552L34.5437 12.0831C34.7347 11.0691 35.8037 10.3458 37.121 10.3458C38.6101 10.3458 39.5343 11.0914 39.5343 12.2993V15.4644H38.2551V14.9126H38.236C37.802 15.3896 37.1659 15.643 36.514 15.5985C35.3876 15.5985 34.6048 14.9984 34.6048 14.1074C34.6048 13.2164 35.2463 12.7057 36.8499 12.4895ZM38.1788 13.0151H38.1597C38.0336 13.194 37.7778 13.2984 37.0715 13.4177C36.2352 13.5705 35.926 13.7309 35.926 14.0216C35.926 14.3125 36.1741 14.4541 36.7125 14.4541C37.5334 14.4541 38.1672 14.0813 38.1672 13.6078L38.1788 13.0151Z" fill="black"/>
<path d="M42.1116 15.1849L39.7556 10.4913H41.3249L42.8713 13.7421H42.8942L44.4215 10.4913H45.9985L42.4704 17.5745H40.9011L42.1116 15.1849Z" fill="black"/>
</g>
<defs>
<clipPath id="clip0_14_5884">
<rect width="42" height="14" fill="white" transform="translate(4 9)"/>
</clipPath>
</defs>
</svg>
