<svg width="50" height="32" viewBox="0 0 50 32" fill="none" xmlns="http://www.w3.org/2000/svg">
<rect width="50" height="32" rx="4" fill="white"/>
<g clip-path="url(#clip0_14_7307)">
<path d="M44.28 17.8065V16.4294V13.6774H40.28H37.614V12.3004H44.28V9.54839H37.614H33.614V12.3004V13.6774V16.4294H37.614H40.28V17.8065H33.614V20.5585H40.28H44.28V17.8065ZM45.334 16.9455V21.4194C45.334 21.5102 45.298 21.599 45.236 21.663C45.174 21.727 45.088 21.7641 45 21.7641H40.666V22.4516H45.666C45.754 22.4516 45.84 22.4145 45.902 22.3505C45.964 22.2865 46 22.1977 46 22.1068V16.9455H45.334ZM9.334 8H4.334C4.246 8 4.16 8.03716 4.098 8.10116C4.036 8.16516 4 8.25394 4 8.34477V13.5061H4.666V9.03226C4.666 8.94142 4.702 8.85265 4.764 8.78865C4.826 8.72465 4.912 8.68748 5 8.68748H9.334V8ZM13.614 24H16.28V17.8065H13.614V24ZM15.948 9.54839H9.614V12.3004H13.614V16.4294H16.28V9.8911C16.28 9.80026 16.244 9.71148 16.182 9.64748C16.12 9.58348 16.034 9.54632 15.946 9.54632L15.948 9.54839ZM8.282 9.54839H5.948C5.86 9.54839 5.774 9.58555 5.712 9.64955C5.65 9.71355 5.614 9.80232 5.614 9.89316V20.2157C5.614 20.3066 5.65 20.3954 5.712 20.4594C5.774 20.5234 5.86 20.5605 5.948 20.5605H12.282V17.8085H8.282V9.55045V9.54839ZM9.616 16.4294H12.282V13.6774H9.616V16.4294ZM10.282 14.3649H11.616V15.7419H10.282V14.3649ZM17.616 9.54839V12.3004H25.616V13.6774H20.282H17.616V16.4294V20.5585H20.282V16.4707L24.282 20.5585H28.282L24.108 16.4294H25.614H28.28V13.6774V12.3004V9.54839H25.614H17.614H17.616ZM29.616 20.5585H32.282V9.54839H29.616V20.5585Z" fill="black"/>
</g>
<defs>
<clipPath id="clip0_14_7307">
<rect width="42" height="16" fill="white" transform="translate(4 8)"/>
</clipPath>
</defs>
</svg>
