<svg width="50" height="32" viewBox="0 0 50 32" fill="none" xmlns="http://www.w3.org/2000/svg">
<rect width="50" height="32" rx="4" fill="white"/>
<path fill-rule="evenodd" clip-rule="evenodd" d="M6.02957 10.0477H19.5701C20.4698 10.0477 21.2059 10.805 21.2059 11.7305V21.4783C21.2059 22.4038 20.4698 23.1611 19.5701 23.1611H5.63577C4.7361 23.1611 4 22.4038 4 21.4783V9.43694C4 8.99754 4.35139 8.69526 4.77548 8.63917L17.2619 7C17.689 7 18.0374 7.35837 18.0374 7.79777V9.15959H5.25409C5.25409 9.73298 5.4207 10.0446 6.03563 10.0446L6.02957 10.0477ZM13.6238 20.7272C12.4848 20.9516 11.0217 20.5621 10.225 19.6802C9.86455 19.2844 10.4462 18.683 10.8066 19.085C11.3428 19.6771 12.297 19.9544 13.0755 19.9357C14.0691 19.9139 14.9536 18.9852 14.3872 17.9475C13.6056 16.5109 11.6821 16.9129 10.6946 15.7848C9.89484 14.8749 10.2735 13.4414 11.2126 12.8056C12.191 12.1419 13.8843 12.1668 14.6871 13.1173C15.0354 13.5255 14.4538 14.1238 14.1054 13.7125C13.4542 12.9459 11.9184 13.0487 11.3307 13.8403C10.4946 14.9683 11.7457 15.576 12.6181 15.8471C13.8177 16.2211 15.1475 16.9036 15.3656 18.3184C15.5413 19.4589 14.681 20.5185 13.6208 20.7304L13.6238 20.7272Z" fill="#EE4E2C"/>
<path fill-rule="evenodd" clip-rule="evenodd" d="M13.6239 20.7302C12.4849 20.9546 11.0218 20.5651 10.2251 19.6831C9.86461 19.2874 10.4462 18.6859 10.8067 19.0879C11.3429 19.68 12.2971 19.9574 13.0756 19.9387C14.0692 19.9169 14.9507 18.9882 14.3872 17.9505C13.6057 16.5139 11.6821 16.9159 10.6946 15.7878C9.8949 14.8778 10.2736 13.4443 11.2126 12.8086C12.191 12.1448 13.8813 12.1729 14.6871 13.1202C15.0324 13.5285 14.4539 14.1268 14.1055 13.7155C13.4542 12.9489 11.9184 13.0517 11.3307 13.8432C10.4947 14.9713 11.7458 15.579 12.6182 15.8501C13.8177 16.2241 15.1476 16.9065 15.3687 18.3213C15.5444 19.4619 14.6841 20.5214 13.6239 20.7333V20.7302Z" fill="#FEFEFE"/>
<path d="M36.9426 9.44948C36.4579 9.44948 36.0217 9.66139 35.7248 9.99483V9.6053C35.7248 9.25316 35.1766 9.25316 35.1766 9.6053V14.2049C35.1766 14.5571 35.7248 14.5571 35.7248 14.2049V12.1575C36.0247 12.4941 36.4579 12.7029 36.9426 12.7029C37.8423 12.7029 38.5723 11.9737 38.5723 11.0762C38.5723 10.1787 37.8423 9.44948 36.9426 9.44948ZM36.9426 12.117C36.367 12.117 35.9005 11.6496 35.9005 11.0793C35.9005 10.562 36.2792 10.132 36.776 10.054C36.779 10.054 36.782 10.054 36.7851 10.054C36.8366 10.0478 36.8881 10.0416 36.9426 10.0416C37.3667 10.0416 37.7332 10.2971 37.8938 10.6617V10.6648C37.9483 10.7926 37.9816 10.9328 37.9816 11.0793C37.9816 11.6527 37.5151 12.117 36.9426 12.117ZM32.8956 12.706C31.9959 12.706 31.2658 11.9768 31.2658 11.0793C31.2658 10.1818 31.9959 9.4526 32.8956 9.4526C33.7952 9.4526 34.5253 10.1818 34.5253 11.0793C34.5253 11.9768 33.7952 12.706 32.8956 12.706ZM32.8956 10.0385C32.32 10.0385 31.8535 10.5059 31.8535 11.0762C31.8535 11.6496 32.32 12.1139 32.8956 12.1139C33.4711 12.1139 33.9376 11.6465 33.9376 11.0762C33.9376 10.5028 33.4711 10.0385 32.8956 10.0385ZM45.9969 11.045C45.9848 10.2971 45.6001 9.62088 44.8064 9.4713C44.1218 9.34353 43.3221 9.7019 43.0313 10.3407C42.7284 11.0045 42.8556 11.9176 43.4524 12.3819C44.0976 12.8836 45.1063 12.7278 45.7697 12.357C46.0787 12.1856 45.803 11.7119 45.491 11.8833C45.07 12.1201 44.5217 12.2323 44.0521 12.0765C43.7008 11.9581 43.5039 11.6558 43.4433 11.3161H45.7243C45.8697 11.3161 45.9999 11.1915 45.9999 11.0419L45.9969 11.045ZM43.4615 10.7708C43.4645 10.749 43.4705 10.7303 43.4766 10.7116C43.6069 10.266 44.0582 10.0073 44.5126 9.99483C45.0336 9.97925 45.3274 10.3407 45.4183 10.7708H43.4615ZM42.3467 11.0481C42.3346 10.3002 41.9499 9.624 41.1562 9.47442C40.4716 9.34665 39.6719 9.70502 39.3811 10.3439C39.0782 11.0076 39.2054 11.9207 39.8022 12.385C40.4474 12.8867 41.4561 12.7309 42.1195 12.3601C42.4285 12.1887 42.1528 11.715 41.8408 11.8864C41.4198 12.1233 40.8715 12.2354 40.4019 12.0796C40.0506 11.9612 39.8537 11.6589 39.7931 11.3193H42.0741C42.2195 11.3193 42.3497 11.1946 42.3497 11.045L42.3467 11.0481ZM39.8113 10.7739C39.8143 10.7521 39.8203 10.7334 39.8264 10.7147C39.9567 10.2691 40.408 10.0104 40.8624 9.99795C41.3834 9.98237 41.6772 10.3439 41.7681 10.7739H39.8113ZM30.6237 10.5215V12.4224C30.6237 12.7808 30.0754 12.7808 30.0754 12.4224V10.5589C30.0572 10.1912 29.7512 10.0198 29.7422 10.0166C29.3514 9.84214 28.6426 9.92316 28.2215 10.4747V12.4255C28.2215 12.7839 27.6732 12.7839 27.6732 12.4255V7.54232C27.6732 7.18394 28.2215 7.18394 28.2215 7.54232V9.73618C28.894 9.27497 29.7482 9.32483 30.1511 9.60842C30.1511 9.60842 30.6358 9.87953 30.6267 10.5246L30.6237 10.5215ZM26.7705 7.76357C26.2313 7.15278 25.1044 7.1372 24.4501 7.56413C23.8231 7.97236 23.5686 8.89167 24.1048 9.47753C24.7652 10.2036 26.0495 9.94497 26.5706 10.8674C26.9462 11.5343 26.3585 12.1295 25.6951 12.1451C25.1741 12.1575 24.538 11.9768 24.1805 11.5966C23.9382 11.3411 23.5535 11.7244 23.7928 11.9799C24.3229 12.544 25.3013 12.7964 26.0617 12.6499C26.7705 12.5159 27.343 11.8334 27.2279 11.1011C27.0825 10.1943 26.195 9.75488 25.3922 9.51493C24.8076 9.34041 23.9745 8.95088 24.5319 8.2279C24.9227 7.71995 25.9496 7.6545 26.3828 8.14688C26.616 8.41176 27.0007 8.02534 26.7705 7.76357Z" fill="#EE4E2C"/>
<path fill-rule="evenodd" clip-rule="evenodd" d="M41.0745 26.0003H39.3327L41.1987 22.376L38.1392 16.427H40.0294L42.1438 20.5405L44.2582 16.427H46L41.0745 26.0003ZM23.7141 23.1644H25.1742V20.419H27.1432C29.1849 20.419 30.8418 18.945 30.8418 17.1282C30.8418 15.3114 29.1849 13.8374 27.1432 13.8374H23.7141C23.7141 16.9475 23.7141 20.0575 23.7141 23.1644ZM25.1742 18.9169V15.3395H27.1432C28.2519 15.3395 29.1515 16.1403 29.1515 17.1282C29.1515 18.1161 28.2519 18.9169 27.1432 18.9169H25.1742ZM36.3096 16.4862H37.5909V23.1084H36.3096V22.3636C35.737 22.8653 34.9979 23.1676 34.1891 23.1676C32.3807 23.1676 30.9145 21.6593 30.9145 19.7989C30.9145 17.9384 32.3807 16.4302 34.1891 16.4302C34.9979 16.4302 35.7401 16.7324 36.3096 17.2342V16.4894V16.4862ZM34.1891 17.8481C35.2342 17.8481 36.0854 18.7206 36.0854 19.7989C36.0854 20.874 35.2372 21.7497 34.1891 21.7497C33.144 21.7497 32.2928 20.8771 32.2928 19.7989C32.2928 18.7237 33.141 17.8481 34.1891 17.8481Z" fill="#EE4E2C"/>
</svg>
