<?xml version="1.0" encoding="iso-8859-1"?>
<!-- Uploaded to: SVG Repo, www.svgrepo.com, Generator: SVG Repo Mixer Tools -->
<!DOCTYPE svg PUBLIC "-//W3C//DTD SVG 1.1//EN" "http://www.w3.org/Graphics/SVG/1.1/DTD/svg11.dtd">
<svg fill="#537188" height="200px" width="200px" version="1.1" id="Capa_1" xmlns="http://www.w3.org/2000/svg" xmlns:xlink="http://www.w3.org/1999/xlink" 
	 viewBox="0 0 408.664 408.664" xml:space="preserve">
<path d="M328.758,86.498c-1.897-2.744-3.688-5.338-4.458-7.672c-0.779-2.359-0.862-5.555-0.949-8.938
	c-0.149-5.768-0.318-12.303-4.111-17.744c-3.549-5.09-9.329-7.523-14.429-9.672c-3.33-1.402-6.475-2.726-8.521-4.51
	c-1.858-1.621-3.5-4.482-5.237-7.51c-2.762-4.814-5.894-10.273-11.462-13.383c-4.293-2.396-9.187-2.721-13.408-2.721
	c-1.042,0-2.097,0.022-3.153,0.041c-0.984,0.019-1.971,0.039-2.952,0.039c-2.269,0-4.863-0.094-6.911-0.785
	c-2.374-0.805-5.001-2.924-7.782-5.17c-4.22-3.408-9.002-7.269-15.129-8.246C229.305,0.078,228.315,0,227.314,0
	c-4.716,0-9.106,1.637-13.352,3.219c-3.52,1.313-6.846,2.551-9.629,2.551c-2.783,0-6.109-1.238-9.631-2.551
	C190.457,1.637,186.067,0,181.352,0c-1.002,0-1.991,0.078-2.942,0.228c-6.126,0.979-10.908,4.84-15.127,8.246
	c-2.781,2.246-5.408,4.365-7.782,5.17c-2.048,0.691-4.644,0.785-6.911,0.785c-0.981,0-1.969-0.02-2.953-0.039
	c-1.057-0.019-2.111-0.041-3.152-0.041c-4.223,0-9.117,0.324-13.408,2.721c-5.57,3.109-8.702,8.568-11.464,13.385
	c-1.736,3.027-3.377,5.887-5.234,7.506c-2.046,1.785-5.192,3.109-8.522,4.512c-5.101,2.146-10.882,4.58-14.432,9.672
	c-3.79,5.439-3.96,11.975-4.109,17.742c-0.088,3.383-0.171,6.578-0.951,8.939c-0.77,2.334-2.561,4.928-4.458,7.674
	c-3.338,4.83-7.121,10.309-7.121,17.082c0,6.773,3.783,12.25,7.121,17.082c1.897,2.746,3.688,5.34,4.459,7.674
	c0.779,2.359,0.862,5.555,0.949,8.936c0.149,5.768,0.318,12.305,4.111,17.744c3.151,4.52,8.061,6.944,12.692,8.936
	c1.91,15.853,10.155,60.743,44.222,108.628c-1.58-0.08-4.052,0.23-6.653,2.257c-6.414,4.996-9.532,17.766-9.532,39.039
	c0,21.273,3.118,34.043,9.531,39.039c2.378,1.852,4.656,2.272,6.237,2.272c0.287,0,0.551-0.014,0.788-0.035
	c6.107-0.036,11.757-0.978,16.943-2.512c-5.971,9.364-12.249,21.15-17.569,35.387c-0.928,2.48-0.118,5.277,1.992,6.879
	l16.514,12.537c1.055,0.799,2.331,1.221,3.628,1.221c0.501,0,1.005-0.063,1.501-0.191c1.776-0.459,3.246-1.705,3.987-3.385
	c0.051-0.114,1.384-3.124,3.599-7.914c5.03,5.98,13.63,11.49,27.028,11.49c13.398,0,21.997-5.51,27.026-11.491
	c2.216,4.791,3.55,7.801,3.601,7.915c0.742,1.68,2.211,2.926,3.988,3.385c0.495,0.129,0.999,0.191,1.5,0.191
	c1.297,0,2.574-0.422,3.628-1.223l16.512-12.535c2.11-1.602,2.92-4.398,1.992-6.879c-5.319-14.235-11.598-26.021-17.567-35.385
	c5.186,1.532,10.835,2.474,16.941,2.51c0.237,0.021,0.501,0.035,0.788,0.035c1.581,0,3.86-0.422,6.237-2.272
	c6.413-4.996,9.531-17.766,9.531-39.039c0-21.273-3.118-34.043-9.532-39.039c-2.6-2.024-5.068-2.333-6.648-2.257
	c33.507-47.039,42.058-90.892,44.199-108.452c0.007-0.058,0.007-0.115,0.013-0.172c4.632-1.991,9.544-4.416,12.698-8.938
	c3.79-5.439,3.96-11.977,4.109-17.742c0.088-3.383,0.171-6.578,0.95-8.939c0.771-2.332,2.563-4.926,4.459-7.672
	c3.338-4.832,7.121-10.309,7.121-17.084C335.88,96.809,332.097,91.33,328.758,86.498z M300.152,53.533
	c3.95,1.662,7.681,3.234,9.243,5.475c1.733,2.486,1.843,6.715,1.959,11.191c0.01,0.392,0.021,0.785,0.032,1.178
	c-5.444-2.113-11.476-3.09-17.939-2.842c-2.064,0.078-4.126,0.297-6.17,0.621c1.201-1.589,2.238-3.318,3.078-5.178
	c1.975-4.369,2.927-9.023,2.85-13.678C295.464,51.547,297.829,52.554,300.152,53.533z M212.765,295.662
	c-1.387-0.329-2.826-0.522-4.313-0.522h-8.242c-1.485,0-2.925,0.192-4.312,0.521c-6.861-7.275-17.939-16.476-32.827-20.719
	c-31.663-40.505-43.163-79.861-47.286-101.342c0.605,0.983,1.209,2.033,1.825,3.106c2.764,4.816,5.896,10.275,11.465,13.385
	c4.292,2.398,9.187,2.721,13.409,2.721c1.041,0,2.096-0.02,3.152-0.041c0.984-0.02,1.972-0.039,2.953-0.039
	c2.268,0,4.863,0.094,6.911,0.787c2.375,0.803,5.002,2.924,7.783,5.17c4.219,3.406,9.001,7.266,15.127,8.244
	c0.95,0.152,1.94,0.229,2.942,0.229c4.716,0,9.105-1.635,13.351-3.217c3.52-1.313,6.847-2.553,9.629-2.553
	c2.782,0,6.108,1.24,9.629,2.553c4.245,1.582,8.635,3.217,13.35,3.217c1.003,0,1.994-0.076,2.943-0.229
	c6.127-0.979,10.909-4.84,15.129-8.246c2.78-2.244,5.407-4.365,7.782-5.168c2.048-0.693,4.643-0.787,6.912-0.787
	c0.98,0,1.967,0.02,2.95,0.039c1.057,0.021,2.109,0.041,3.15,0.041c4.223,0,9.117-0.324,13.409-2.721
	c5.57-3.109,8.701-8.566,11.463-13.381c0.604-1.054,1.198-2.084,1.793-3.052c-4.073,20.846-15.579,60.755-47.249,101.281
	C230.704,279.184,219.625,288.385,212.765,295.662z M215.189,313.877c0,3.715-3.021,6.736-6.736,6.736h-8.242
	c-3.713,0-6.734-3.022-6.734-6.736c0-3.715,3.021-6.736,6.734-6.736h8.242C212.167,307.141,215.189,310.162,215.189,313.877z
	 M192.701,30.033c-7.855-7.193-20.098-6.654-27.291,1.199c-2.238,2.443-2.071,6.24,0.373,8.477c2.443,2.238,6.238,2.072,8.477-0.373
	c2.725-2.973,7.362-3.18,10.337-0.453c4.328,3.963,4.624,10.711,0.659,15.041c-5.513,6.018-14.896,6.434-20.917,0.918
	c-3.942-3.609-6.242-8.539-6.478-13.877c-0.234-5.34,1.624-10.449,5.234-14.391c9.873-10.779,26.675-11.519,37.454-1.646
	c7.306,6.691,16.696,22.045,15.311,38.923c-1.137-0.358-2.3-0.669-3.489-0.921c-6.6-1.398-13.173-1.242-19.345,0.204
	c0.367-0.357,0.729-0.725,1.078-1.106C202.538,52.818,201.908,38.467,192.701,30.033z M252.995,118.303
	c-6.3-1.019-12.645-0.468-18.574,1.574c3.079-3.707,5.333-8.186,6.399-13.217c0.469-2.212,0.716-4.42,0.777-6.604
	c2.714,1.883,5.611,3.495,8.661,4.806C250.195,109.453,251.113,114.047,252.995,118.303z M279.075,173.425
	c-1.642,2.722-3.314,5.061-5.337,6.19c-1.89,1.055-4.882,1.197-7.56,1.197c-0.964,0-1.939-0.02-2.917-0.039
	c-1.061-0.02-2.126-0.041-3.184-0.041c-1.202,0-2.483,0.024-3.808,0.117c4.587-3.701,7.996-8.922,9.349-15.115
	c1.29-5.91,0.201-11.967-3.066-17.059c-3.268-5.09-8.322-8.604-14.231-9.893c-10.4-2.273-20.718,4.348-22.989,14.752
	c-0.706,3.238,1.346,6.436,4.583,7.143c3.235,0.699,6.434-1.346,7.142-4.584c0.86-3.939,4.77-6.449,8.707-5.586
	c2.778,0.605,5.154,2.258,6.69,4.65c1.535,2.393,2.047,5.24,1.44,8.018c-1.74,7.977-9.646,13.057-17.622,11.309
	c-10.778-2.352-17.634-13.035-15.282-23.814c1.51-6.918,5.623-12.834,11.582-16.658c5.96-3.822,13.047-5.1,19.97-3.588
	C270.62,134.369,282.886,154.361,279.075,173.425z M195.88,168.119c-7.5-5.723-18.258-4.275-23.979,3.227
	c-2.01,2.635-1.503,6.4,1.132,8.41c2.635,2.01,6.399,1.502,8.409-1.133c1.709-2.24,4.923-2.668,7.16-0.965
	c3.457,2.639,4.124,7.598,1.489,11.055c-3.8,4.979-10.939,5.938-15.92,2.143c-6.881-5.25-8.209-15.117-2.959-22
	c3.42-4.486,8.383-7.371,13.974-8.123c5.596-0.75,11.141,0.719,15.626,4.139c5.899,4.5,10.032,10.771,10.835,25.626
	c-2.351-0.65-4.802-1.105-7.314-1.105c-0.479,0-0.956,0.029-1.431,0.061C205.105,181.801,202.581,173.232,195.88,168.119z
	 M223.77,194.602c-0.057-4.801-0.393-9.142-1.031-13.075c3.243,2.178,6.934,3.8,10.976,4.682c1.918,0.418,3.833,0.619,5.72,0.619
	c0.575,0,1.146-0.037,1.715-0.074c-1.125,0.846-2.222,1.725-3.303,2.598c-3.35,2.703-6.514,5.258-9.482,5.732
	c-0.326,0.051-0.681,0.078-1.053,0.078C226.237,195.162,225.042,194.942,223.77,194.602z M209.887,74.67
	c13.426,2.842,22.036,16.078,19.194,29.504c-2.141,10.094-12.089,16.564-22.186,14.43c-3.597-0.762-6.682-2.879-8.687-5.963
	c-2.005-3.082-2.689-6.762-1.927-10.361c0.543-2.564,2.052-4.764,4.249-6.193c2.196-1.428,4.818-1.92,7.383-1.373
	c3.246,0.686,6.427-1.385,7.114-4.625c0.687-3.242-1.385-6.428-4.626-7.115c-5.699-1.203-11.531-0.121-16.415,3.055
	c-4.884,3.178-8.238,8.066-9.445,13.766c-1.427,6.734-0.146,13.621,3.607,19.391c3.753,5.77,9.527,9.732,16.26,11.16
	c4.943,1.047,9.862,0.828,14.43-0.424c-4.748,5.026-8.06,11.263-9.572,18.191c-0.186,0.854-0.326,1.705-0.44,2.555
	c-13.186-3.629-24.341-11.142-31.209-21.219c-6.231-9.141-8.5-19.664-6.39-29.629C174.952,82.227,192.295,70.939,209.887,74.67z
	 M180.173,149.483c-1.393,0.336-2.751,0.763-4.074,1.269c-0.196-1.898-0.5-3.787-0.905-5.656
	C176.766,146.635,178.427,148.099,180.173,149.483z M158.497,108.866c0.114,3.291,0.567,6.572,1.35,9.81
	c-3.11-2.541-6.559-4.531-10.229-5.934C152.731,111.719,155.707,110.42,158.497,108.866z M135.203,122.324
	c6.735-0.297,13.201,2.051,18.179,6.611c7.372,6.752,11.747,18.799,10.876,29.647c-0.912,0.942-1.781,1.937-2.588,2.995
	c-4.471,5.861-6.23,12.948-5.496,19.756c-2.65-0.507-5.264-0.602-7.584-0.602c-1.059,0-2.124,0.021-3.186,0.041
	c-0.979,0.02-1.955,0.039-2.919,0.039c-2.678,0-5.669-0.143-7.559-1.197c-2.121-1.184-3.858-3.704-5.578-6.597
	c6.695-0.266,13.287-3.089,18.157-8.407c3.973-4.336,6.018-9.959,5.76-15.834c-0.259-5.873-2.789-11.295-7.125-15.266
	c-3.705-3.395-8.501-5.129-13.53-4.922c-5.019,0.221-9.652,2.383-13.046,6.088c-2.238,2.443-2.072,6.238,0.371,8.477
	c2.443,2.24,6.239,2.072,8.477-0.371c2.538-2.77,6.855-2.959,9.623-0.422c1.973,1.807,3.124,4.271,3.241,6.943
	c0.118,2.672-0.813,5.23-2.619,7.201c-5.22,5.699-14.104,6.09-19.803,0.873c-3.747-3.432-5.933-8.117-6.156-13.193
	c-0.223-5.074,1.544-9.934,4.975-13.682C122.231,125.525,128.458,122.621,135.203,122.324z M258.636,83.701
	c-2.525,2.759-4.47,5.846-5.851,9.109c-7.789-3.969-14.112-10.639-17.771-18.93c-4.189-9.492-4.432-19.721-0.663-28.062
	c2.913-6.453,8.166-11.387,14.79-13.889c6.624-2.502,13.825-2.277,20.279,0.639c4.871,2.201,8.595,6.166,10.483,11.164
	c1.889,5,1.717,10.436-0.484,15.307c-1.627,3.605-4.561,6.359-8.26,7.756c-3.7,1.396-7.722,1.271-11.328-0.357
	c-2.591-1.17-4.571-3.279-5.576-5.938c-1.004-2.66-0.913-5.553,0.257-8.145c1.66-3.676,6.004-5.316,9.68-3.656
	c3.023,1.367,6.574,0.021,7.938-2.998c1.364-3.021,0.021-6.574-2.998-7.938c-4.703-2.125-9.951-2.289-14.776-0.467
	c-4.827,1.822-8.655,5.416-10.779,10.119c-2.489,5.514-2.683,11.666-0.546,17.324c2.138,5.658,6.351,10.145,11.863,12.633
	c2.625,1.187,5.373,1.925,8.156,2.229C261.455,80.883,259.969,82.246,258.636,83.701z M218.152,14.463
	c3.398-1.266,6.608-2.463,9.161-2.463c0.371,0,0.725,0.027,1.051,0.078c2.967,0.475,6.131,3.027,9.479,5.732
	c1.597,1.289,3.222,2.592,4.935,3.774c-8.173,3.646-14.729,9.931-18.725,17.964c-3.412-9.073-8.669-16.92-14.283-22.414
	C212.73,16.484,215.55,15.434,218.152,14.463z M134.927,27.547c1.889-1.055,4.88-1.197,7.558-1.197c0.964,0,1.94,0.02,2.919,0.039
	c1.063,0.021,2.127,0.041,3.186,0.041c0.098,0,0.201-0.002,0.3-0.002c-2.198,4.645-3.249,9.783-3.017,15.064
	c0.376,8.541,4.055,16.424,10.361,22.199c5.788,5.303,13.294,7.577,20.556,6.912c-7.198,5.267-12.845,12.688-15.868,21.557
	c-0.303,0.207-0.596,0.438-0.864,0.707c-13.693,13.691-40.105,14.152-53.324,0.935c-5.007-5.006-7.764-11.662-7.764-18.744
	s2.758-13.738,7.764-18.744c7.803-7.801,20.497-7.801,28.298-0.002c5.771,5.773,5.771,15.166,0.002,20.939
	c-4.152,4.148-10.907,4.146-15.058,0c-2.852-2.852-2.852-7.494,0.001-10.348c2.343-2.344,2.342-6.143-0.001-8.484
	c-2.345-2.344-6.145-2.342-8.485,0c-7.53,7.533-7.529,19.787,0.002,27.318c8.828,8.826,23.195,8.824,32.025-0.002
	c10.449-10.451,10.449-27.457-0.001-37.908c-4.799-4.799-10.757-7.744-16.979-8.852c0.506-0.849,0.998-1.702,1.484-2.55
	C130.201,32.625,132.26,29.037,134.927,27.547z M99.269,148.154c-1.733-2.486-1.843-6.715-1.959-11.191
	c-0.105-4.104-0.216-8.348-1.551-12.389c-1.311-3.971-3.685-7.408-5.98-10.731c-2.568-3.719-4.994-7.229-4.994-10.262
	c0-3.033,2.426-6.545,4.994-10.262c0.341-0.493,0.682-0.99,1.021-1.488c1.854,3.827,4.353,7.36,7.449,10.457
	c5.729,5.729,13.293,9.766,21.735,11.766c-4.158,2.027-7.943,4.832-11.162,8.346c-5.596,6.111-8.478,14.035-8.113,22.313
	c0.082,1.852,0.332,3.668,0.727,5.439C100.533,149.539,99.777,148.885,99.269,148.154z M142.153,313.877
	c0-22.049,3.57-28.002,4.622-29.275c17.629,0.155,30.855,9.736,38.781,17.635c-2.547,3.2-4.081,7.242-4.081,11.641
	c0,4.398,1.534,8.44,4.08,11.64c-0.054,0.054-1.186,1.102-2.138,2.044c-8.072,7.416-20.516,15.449-36.648,15.592
	C145.708,341.889,142.153,336.006,142.153,313.877z M165.852,393.334l-6.919-5.252c11.848-29.472,27.933-46.995,33.015-52.061
	c0.703-0.656,1.376-1.306,2.021-1.946c0.01-0.011,0.021-0.02,0.03-0.031c0.665-0.662,1.297-1.314,1.898-1.951
	c0.691,0.164,1.393,0.295,2.109,0.38C185.734,351.048,171.924,380.112,165.852,393.334z M225.018,384.578
	c-0.934,2.711-5.278,12.086-20.685,12.086c-15.48,0-19.794-9.463-20.686-12.072c0.002-0.286,0.01-0.561,0.013-0.844
	c5.813-12.002,13.413-26.917,20.671-38.835c7.258,11.916,14.859,26.833,20.675,38.837
	C225.009,384.027,225.016,384.298,225.018,384.578z M249.731,388.082l-6.918,5.252c-6.073-13.221-19.886-42.284-32.158-60.862
	c0.718-0.084,1.419-0.216,2.11-0.379c1.204,1.277,2.534,2.612,3.996,3.972C221.89,341.185,237.917,358.692,249.731,388.082z
	 M266.511,313.877c0,22.049-3.57,28.002-4.622,29.275c-16.12-0.142-28.554-8.162-36.624-15.573c-0.97-0.961-2.106-2.012-2.157-2.061
	c2.547-3.201,4.081-7.242,4.081-11.641c0-4.398-1.534-8.44-4.082-11.641c7.925-7.898,21.15-17.479,38.782-17.635
	C262.94,285.875,266.511,291.828,266.511,313.877z M318.886,113.846c-2.296,3.322-4.669,6.758-5.98,10.729
	c-1.335,4.043-1.445,8.287-1.552,12.393c-0.116,4.477-0.226,8.705-1.957,11.189c-1.565,2.242-5.295,3.813-9.245,5.477
	c-3.08,1.297-6.237,2.631-9.111,4.53c-1.054-6.191-3.263-12.248-6.558-17.741c-0.967-1.613-2.015-3.143-3.122-4.605
	c6.349-0.623,12.5-3.493,17.138-8.558c4.085-4.461,6.189-10.244,5.924-16.287c-0.266-6.045-2.869-11.621-7.33-15.707
	c-7.854-7.193-20.098-6.654-27.291,1.201c-2.238,2.443-2.071,6.238,0.373,8.477c2.443,2.238,6.238,2.072,8.477-0.373
	c1.32-1.441,3.122-2.283,5.074-2.367c1.968-0.09,3.822,0.594,5.264,1.912c2.097,1.92,3.32,4.543,3.444,7.383
	c0.125,2.842-0.863,5.561-2.784,7.658c-5.514,6.02-14.897,6.43-20.918,0.92c-8.137-7.451-8.694-20.133-1.244-28.27
	c5.923-6.469,16.293-10.895,26.417-11.279c5.888-0.217,14.261,0.835,21.216,6.949c1.144,2.033,2.464,3.959,3.766,5.844
	c2.569,3.717,4.995,7.229,4.995,10.262C323.88,106.615,321.454,110.127,318.886,113.846z"/>
</svg>